<?xml version="1.0" standalone="no"?>
<!DOCTYPE svg PUBLIC "-//W3C//DTD SVG 20010904//EN"
 "http://www.w3.org/TR/2001/REC-SVG-20010904/DTD/svg10.dtd">
<svg version="1.0" xmlns="http://www.w3.org/2000/svg"
 width="92.000000pt" height="70.000000pt" viewBox="0 0 92.000000 70.000000"
 preserveAspectRatio="xMidYMid meet">

<g transform="translate(0.000000,70.000000) scale(0.100000,-0.100000)"
fill="#000000" stroke="none">
<path d="M320 509 c0 -59 -111 -209 -155 -209 -8 0 -15 -4 -15 -10 0 -6 35
-10 85 -10 l85 0 0 -30 c0 -16 5 -30 10 -30 6 0 10 14 10 30 l0 30 130 0 130
0 0 -30 c0 -16 5 -30 10 -30 6 0 10 14 10 30 l0 30 90 0 c53 0 90 4 90 10 0 6
-9 10 -20 10 -50 0 -160 141 -160 205 0 14 -4 25 -10 25 -5 0 -10 -13 -10 -30
0 -41 -45 -89 -95 -100 -87 -20 -165 29 -165 105 0 14 -4 25 -10 25 -5 0 -10
-9 -10 -21z m0 -139 c0 -63 -2 -70 -20 -70 -17 0 -20 7 -20 39 0 31 26 101 38
101 1 0 2 -31 2 -70z m280 0 c0 -63 -2 -70 -20 -70 -17 0 -20 7 -20 52 0 34 6
58 17 70 9 10 18 18 20 18 1 0 3 -31 3 -70z m-134 10 c18 0 44 4 58 10 26 9
26 9 26 -39 l0 -49 -105 0 -105 -1 0 63 0 63 47 -23 c25 -13 61 -24 79 -24z
m234 -46 l35 -33 -57 1 -58 0 0 67 0 66 22 -34 c12 -19 38 -49 58 -67z m-430
-4 c0 -27 -3 -30 -32 -30 l-32 0 29 30 c16 17 30 30 32 30 2 0 3 -13 3 -30z"/>
</g>
</svg>
